<svg width="101" height="18" viewBox="0 0 101 18" fill="none" xmlns="http://www.w3.org/2000/svg">
<path d="M12.968 13.7H5.818L4.454 17H0.802L7.666 1.6H11.186L18.072 17H14.332L12.968 13.7ZM11.846 10.994L9.404 5.098L6.962 10.994H11.846ZM26.4238 4.988C27.5238 4.988 28.5211 5.24467 29.4158 5.758C30.3251 6.25667 31.0364 6.968 31.5498 7.892C32.0631 8.80133 32.3198 9.86467 32.3198 11.082C32.3198 12.2993 32.0631 13.37 31.5498 14.294C31.0364 15.2033 30.3251 15.9147 29.4158 16.428C28.5211 16.9267 27.5238 17.176 26.4238 17.176C24.7958 17.176 23.5564 16.6627 22.7058 15.636V17H19.4278V0.675999H22.8598V6.418C23.7251 5.46467 24.9131 4.988 26.4238 4.988ZM25.8298 14.36C26.7098 14.36 27.4284 14.0667 27.9858 13.48C28.5578 12.8787 28.8438 12.0793 28.8438 11.082C28.8438 10.0847 28.5578 9.29267 27.9858 8.706C27.4284 8.10467 26.7098 7.804 25.8298 7.804C24.9498 7.804 24.2238 8.10467 23.6517 8.706C23.0944 9.29267 22.8158 10.0847 22.8158 11.082C22.8158 12.0793 23.0944 12.8787 23.6517 13.48C24.2238 14.0667 24.9498 14.36 25.8298 14.36ZM46.5412 5.164V17H43.2852V15.592C42.8305 16.1053 42.2879 16.5013 41.6572 16.78C41.0265 17.044 40.3445 17.176 39.6112 17.176C38.0565 17.176 36.8245 16.7287 35.9152 15.834C35.0059 14.9393 34.5512 13.612 34.5512 11.852V5.164H37.9832V11.346C37.9832 13.2527 38.7825 14.206 40.3812 14.206C41.2025 14.206 41.8625 13.942 42.3612 13.414C42.8599 12.8713 43.1092 12.072 43.1092 11.016V5.164H46.5412Z" fill="#111111" fill-opacity="0.54"/>
<path d="M53.1527 4.504H48.2247V1.6H61.6447V4.504H56.7167V17H53.1527V4.504ZM73.7112 11.126C73.7112 11.17 73.6892 11.478 73.6452 12.05H64.6912C64.8525 12.7833 65.2339 13.3627 65.8352 13.788C66.4365 14.2133 67.1845 14.426 68.0792 14.426C68.6952 14.426 69.2379 14.338 69.7072 14.162C70.1912 13.9713 70.6385 13.678 71.0492 13.282L72.8752 15.262C71.7605 16.538 70.1325 17.176 67.9912 17.176C66.6565 17.176 65.4759 16.9193 64.4492 16.406C63.4225 15.878 62.6305 15.152 62.0732 14.228C61.5159 13.304 61.2372 12.2553 61.2372 11.082C61.2372 9.92333 61.5085 8.882 62.0512 7.958C62.6085 7.01933 63.3639 6.29333 64.3172 5.78C65.2852 5.252 66.3632 4.988 67.5512 4.988C68.7099 4.988 69.7585 5.23733 70.6972 5.736C71.6359 6.23467 72.3692 6.95333 72.8972 7.892C73.4399 8.816 73.7112 9.894 73.7112 11.126ZM67.5732 7.584C66.7959 7.584 66.1432 7.804 65.6152 8.244C65.0872 8.684 64.7645 9.28533 64.6472 10.048H70.4772C70.3599 9.3 70.0372 8.706 69.5092 8.266C68.9812 7.81133 68.3359 7.584 67.5732 7.584ZM81.7161 17.176C80.4548 17.176 79.3181 16.9193 78.3061 16.406C77.3088 15.878 76.5241 15.152 75.9521 14.228C75.3948 13.304 75.1161 12.2553 75.1161 11.082C75.1161 9.90867 75.3948 8.86 75.9521 7.936C76.5241 7.012 77.3088 6.29333 78.3061 5.78C79.3181 5.252 80.4548 4.988 81.7161 4.988C82.9628 4.988 84.0481 5.252 84.9721 5.78C85.9108 6.29333 86.5928 7.034 87.0181 8.002L84.3561 9.432C83.7401 8.34667 82.8528 7.804 81.6941 7.804C80.7994 7.804 80.0588 8.09733 79.4721 8.684C78.8854 9.27067 78.5921 10.07 78.5921 11.082C78.5921 12.094 78.8854 12.8933 79.4721 13.48C80.0588 14.0667 80.7994 14.36 81.6941 14.36C82.8674 14.36 83.7548 13.8173 84.3561 12.732L87.0181 14.184C86.5928 15.1227 85.9108 15.856 84.9721 16.384C84.0481 16.912 82.9628 17.176 81.7161 17.176ZM96.1022 4.988C97.5689 4.988 98.7496 5.428 99.6442 6.308C100.554 7.188 101.008 8.49333 101.008 10.224V17H97.5762V10.752C97.5762 9.81333 97.3709 9.11667 96.9602 8.662C96.5496 8.19267 95.9556 7.958 95.1782 7.958C94.3129 7.958 93.6236 8.22933 93.1102 8.772C92.5969 9.3 92.3402 10.092 92.3402 11.148V17H88.9082V0.675999H92.3402V6.396C92.7949 5.94133 93.3449 5.59667 93.9902 5.362C94.6356 5.11267 95.3396 4.988 96.1022 4.988Z" fill="#111111" fill-opacity="0.36"/>
</svg>
