<svg width="30" height="30" viewBox="0 0 30 30" fill="none" xmlns="http://www.w3.org/2000/svg">
<g id="Iconly/Bulk/Activity">
<g id="Activity">
<path id="Path_34168" fill-rule="evenodd" clip-rule="evenodd" d="M19.0535 5.92195C19.0535 8.69819 21.3074 10.9488 24.0877 10.9488C24.3938 10.9473 24.6992 10.9179 25 10.861V20.8268C25 25.0195 22.5269 27.5 18.328 27.5H9.18295C4.97313 27.5 2.5 25.0195 2.5 20.8268V11.6951C2.5 7.50244 4.97313 5 9.18295 5H19.1414C19.0823 5.30376 19.0529 5.61252 19.0535 5.92195ZM16.4375 18.6207L20.0098 14.011V13.989C20.3156 13.5781 20.2376 12.9986 19.8339 12.6829C19.6385 12.5321 19.3903 12.4668 19.1458 12.502C18.9014 12.5371 18.6817 12.6698 18.5369 12.8695L15.5252 16.7439L12.0957 14.0439C11.9 13.8914 11.6509 13.824 11.4048 13.8571C11.1586 13.8901 10.9362 14.0208 10.7877 14.2195L7.09452 18.9829C6.96471 19.1447 6.89482 19.3463 6.89667 19.5537C6.87524 19.9727 7.13984 20.3533 7.54047 20.4798C7.9411 20.6062 8.37672 20.4466 8.60039 20.0915L11.6891 16.0963L15.1185 18.7854C15.3135 18.9426 15.5642 19.0139 15.813 18.9829C16.0618 18.9518 16.2872 18.8211 16.4375 18.6207Z" fill="#006AFF"/>
<circle id="Ellipse_742" opacity="0.4" cx="24.375" cy="5.625" r="3.125" fill="#006AFF"/>
</g>
</g>
</svg>
