<svg width="18" height="12" viewBox="0 0 18 12" fill="none" xmlns="http://www.w3.org/2000/svg">
<path opacity="0.4" d="M5.20248 7.19031L1.50325 7.51746C0.673083 7.51746 0 6.83782 0 5.99956C0 5.1613 0.673083 4.48166 1.50325 4.48166L5.20248 4.80881C5.85375 4.80881 6.38174 5.34195 6.38174 5.99956C6.38174 6.65827 5.85375 7.19031 5.20248 7.19031Z" fill="#006AFF" fill-opacity="0.54"/>
<path d="M17.6247 7.13016C17.5669 7.18854 17.3509 7.43529 17.148 7.64017C15.9644 8.92344 12.8739 11.0218 11.2572 11.664C11.0117 11.7665 10.391 11.9846 10.0583 12C9.74082 12 9.43755 11.9262 9.14846 11.7808C8.78737 11.577 8.49938 11.2554 8.34011 10.8764C8.23865 10.6143 8.07938 9.82669 8.07938 9.81237C7.9212 8.95208 7.83502 7.55315 7.83502 6.00661C7.83502 4.53497 7.9212 3.19332 8.05102 2.31871C8.0652 2.30329 8.22447 1.32623 8.39792 0.991371C8.71537 0.378924 9.33609 0 10.0005 0H10.0583C10.4914 0.0143194 11.4012 0.394346 11.4012 0.407564C12.9317 1.04975 15.9491 3.04681 17.1622 4.37415C17.1622 4.37415 17.5047 4.71562 17.6531 4.92822C17.8844 5.23444 18 5.61337 18 5.99229C18 6.41527 17.8702 6.80852 17.6247 7.13016Z" fill="#006AFF" fill-opacity="0.54"/>
</svg>
