<svg width="24" height="24" viewBox="0 0 24 24" fill="none" xmlns="http://www.w3.org/2000/svg">
<g id="Iconly/Bulk/Chart">
<g id="Chart">
<path id="Fill 1" opacity="0.4" d="M16.6756 2H7.33333C3.92889 2 2 3.92889 2 7.33333V16.6667C2 20.0711 3.92889 22 7.33333 22H16.6756C20.08 22 22 20.0711 22 16.6667V7.33333C22 3.92889 20.08 2 16.6756 2Z" fill="#006AFF"/>
<path id="Fill 4" d="M7.36872 9.3689C6.91539 9.3689 6.54205 9.74223 6.54205 10.2045V17.0756C6.54205 17.5289 6.91539 17.9022 7.36872 17.9022C7.83094 17.9022 8.20428 17.5289 8.20428 17.0756V10.2045C8.20428 9.74223 7.83094 9.3689 7.36872 9.3689Z" fill="#006AFF"/>
<path id="Fill 6" d="M12.0337 6.08887C11.5804 6.08887 11.207 6.4622 11.207 6.92442V17.0755C11.207 17.5289 11.5804 17.9022 12.0337 17.9022C12.4959 17.9022 12.8693 17.5289 12.8693 17.0755V6.92442C12.8693 6.4622 12.4959 6.08887 12.0337 6.08887Z" fill="#006AFF"/>
<path id="Fill 8" d="M16.6399 12.9956C16.1777 12.9956 15.8044 13.3689 15.8044 13.8312V17.0756C15.8044 17.5289 16.1777 17.9023 16.631 17.9023C17.0932 17.9023 17.4666 17.5289 17.4666 17.0756V13.8312C17.4666 13.3689 17.0932 12.9956 16.6399 12.9956Z" fill="#006AFF"/>
</g>
</g>
</svg>
