<svg width="24" height="24" viewBox="0 0 24 24" fill="none" xmlns="http://www.w3.org/2000/svg">
<g id="Iconly/Bulk/Chat">
<g id="Chat">
<path id="Fill 1" opacity="0.4" d="M12.02 2C6.21 2 2 6.74 2 12C2 13.68 2.49 15.41 3.35 16.99C3.51 17.25 3.53 17.58 3.42 17.89L2.75 20.13C2.6 20.67 3.06 21.07 3.57 20.91L5.59 20.31C6.14 20.13 6.57 20.36 7.081 20.67C8.541 21.53 10.36 21.97 12 21.97C16.96 21.97 22 18.14 22 11.97C22 6.65 17.7 2 12.02 2Z" fill="#111111" fill-opacity="0.54"/>
<path id="Combined Shape" fill-rule="evenodd" clip-rule="evenodd" d="M11.9795 13.2901C11.2695 13.2801 10.6995 12.7101 10.6995 12.0001C10.6995 11.3001 11.2795 10.7201 11.9795 10.7301C12.6895 10.7301 13.2595 11.3001 13.2595 12.0101C13.2595 12.7101 12.6895 13.2901 11.9795 13.2901ZM7.37009 13.2901C6.67009 13.2901 6.09009 12.7101 6.09009 12.0101C6.09009 11.3001 6.66009 10.7301 7.37009 10.7301C8.08009 10.7301 8.65009 11.3001 8.65009 12.0101C8.65009 12.7101 8.08009 13.2801 7.37009 13.2901ZM15.3088 12.0102C15.3088 12.7102 15.8788 13.2902 16.5888 13.2902C17.2988 13.2902 17.8688 12.7102 17.8688 12.0102C17.8688 11.3002 17.2988 10.7302 16.5888 10.7302C15.8788 10.7302 15.3088 11.3002 15.3088 12.0102Z" fill="#111111" fill-opacity="0.54"/>
</g>
</g>
</svg>
