<svg width="24" height="24" viewBox="0 0 24 24" fill="none" xmlns="http://www.w3.org/2000/svg">
<g id="Iconly/Bulk/Discovery">
<g id="Discovery">
<path id="Fill 1" opacity="0.4" d="M22 12C22 17.523 17.523 22 12 22C6.477 22 2 17.523 2 12C2 6.478 6.477 2 12 2C17.523 2 22 6.478 22 12Z" fill="#111111" fill-opacity="0.54"/>
<path id="Fill 4" d="M15.8587 8.70505L14.2387 13.8251C14.1787 14.0351 14.0087 14.2051 13.7987 14.2661L8.69874 15.8651C8.35874 15.9761 8.02874 15.6451 8.13874 15.3051L9.73874 10.1751C9.79874 9.96505 9.96874 9.80505 10.1787 9.73505L15.2987 8.13505C15.6487 8.02505 15.9687 8.35505 15.8587 8.70505Z" fill="#111111" fill-opacity="0.54"/>
</g>
</g>
</svg>
