<svg width="30" height="30" viewBox="0 0 30 30" fill="none" xmlns="http://www.w3.org/2000/svg">
<g id="Iconly/Bulk/Message">
<g id="Group">
<path id="Fill 1" opacity="0.4" d="M27.5 19.9255C27.5 23.413 24.7 26.238 21.2125 26.2505H21.2H8.8125C5.3375 26.2505 2.5 23.438 2.5 19.9505V19.938C2.5 19.938 2.5075 14.4055 2.5175 11.623C2.51875 11.1005 3.11875 10.808 3.5275 11.133C6.4975 13.4892 11.8088 17.7855 11.875 17.8417C12.7625 18.553 13.8875 18.9542 15.0375 18.9542C16.1875 18.9542 17.3125 18.553 18.2 17.828C18.2663 17.7842 23.4588 13.6167 26.4738 11.2217C26.8838 10.8955 27.4862 11.188 27.4875 11.7092C27.5 14.4705 27.5 19.9255 27.5 19.9255Z" fill="#006AFF"/>
<path id="Fill 4" d="M26.8451 7.09213C25.7626 5.05213 23.6326 3.74963 21.2876 3.74963H8.8126C6.4676 3.74963 4.3376 5.05213 3.2551 7.09213C3.0126 7.54838 3.1276 8.11713 3.53135 8.43963L12.8126 15.8634C13.4626 16.3884 14.2501 16.6496 15.0376 16.6496C15.0426 16.6496 15.0463 16.6496 15.0501 16.6496C15.0538 16.6496 15.0588 16.6496 15.0626 16.6496C15.8501 16.6496 16.6376 16.3884 17.2876 15.8634L26.5688 8.43963C26.9726 8.11713 27.0876 7.54838 26.8451 7.09213Z" fill="#006AFF"/>
</g>
</g>
</svg>
