<svg width="88" height="18" viewBox="0 0 88 18" fill="none" xmlns="http://www.w3.org/2000/svg">
<path d="M0.924 17H3.916V5.846L8.734 12.38L13.662 5.736V17H16.654V0.94H13.816L8.756 7.694L3.894 0.94H0.924V17Z" fill="#111111" fill-opacity="0.54"/>
<path d="M18.4767 17H21.4687V10.356H27.5627V7.496H21.4687V3.8H27.5627V0.94H18.4767V17ZM35.028 17.264C36.722 17.264 38.262 16.538 39.208 15.328V17H42.178V4.13H39.208V5.67C38.262 4.548 36.766 3.866 35.072 3.866C31.816 3.866 28.692 6.308 28.692 10.576C28.692 14.8 31.926 17.264 35.028 17.264ZM35.512 14.536C33.312 14.536 31.618 12.776 31.618 10.532C31.618 8.31 33.312 6.572 35.512 6.572C37.734 6.572 39.362 8.332 39.362 10.532C39.362 12.754 37.734 14.536 35.512 14.536ZM43.8697 17H46.8397V13.722L48.8857 11.456L52.7357 17H56.0577L50.9097 9.696L55.8817 4.13H52.3177L46.8397 10.334V0.72H43.8697V17ZM56.062 6.792H58.262V11.632C58.262 15.724 59.472 17 63.454 17H63.872V14.206C61.584 14.206 61.254 13.854 61.254 11.61V6.792H63.872V4.13H61.254V0.126L58.262 2.172V4.13H56.062V6.792ZM71.1294 17.264C74.8254 17.264 77.7954 14.272 77.7954 10.576C77.7954 6.814 74.8254 3.866 71.1294 3.866C67.4114 3.866 64.4634 6.814 64.4634 10.576C64.4634 14.272 67.4114 17.264 71.1294 17.264ZM71.1294 14.47C68.9954 14.47 67.3894 12.71 67.3894 10.576C67.3894 8.398 68.9954 6.66 71.1294 6.66C73.2414 6.66 74.8694 8.398 74.8694 10.576C74.8694 12.71 73.2414 14.47 71.1294 14.47ZM79.1041 17H82.0741V10.136C82.0741 7.914 82.9761 6.99 84.7141 6.99C85.5721 6.99 86.0561 7.21 86.4961 7.496L87.6181 4.68C87.0241 4.35 86.2981 4.13 85.3521 4.13C83.7461 4.13 82.6461 4.768 82.0521 6.044V4.13H79.1041V17Z" fill="#111111" fill-opacity="0.36"/>
</svg>
