<svg width="20" height="20" viewBox="0 0 20 20" fill="none" xmlns="http://www.w3.org/2000/svg">
<path fill-rule="evenodd" clip-rule="evenodd" d="M19.9996 14.1839C18.5735 14.9018 16.9624 15.3061 15.2568 15.3061C9.42387 15.3061 4.69531 10.5775 4.69531 4.74453C4.69531 3.03799 5.10006 1.42598 5.81879 -0.000732422C2.36761 1.7367 0 5.31115 0 9.43859C0 15.2716 4.72856 20.0001 10.5615 20.0001C14.688 20.0001 18.2617 17.6337 19.9996 14.1839Z" fill="#111111" fill-opacity="0.54"/>
<path d="M15.2556 1.22412L16.2902 3.32056L18.6038 3.65673L16.9297 5.28858L17.3249 7.59279L15.2556 6.50489L13.1863 7.59279L13.5815 5.28858L11.9074 3.65673L14.2209 3.32056L15.2556 1.22412Z" fill="#111111" fill-opacity="0.54"/>
</svg>
