<svg width="99" height="19" viewBox="0 0 99 19" fill="none" xmlns="http://www.w3.org/2000/svg">
<path d="M0.924 18H3.916V6.846L8.734 13.38L13.662 6.736V18H16.654V1.94H13.816L8.756 8.694L3.894 1.94H0.924V18ZM24.6587 18.264C28.3547 18.264 31.3247 15.272 31.3247 11.576C31.3247 7.814 28.3547 4.866 24.6587 4.866C20.9407 4.866 17.9927 7.814 17.9927 11.576C17.9927 15.272 20.9407 18.264 24.6587 18.264ZM24.6587 15.47C22.5247 15.47 20.9187 13.71 20.9187 11.576C20.9187 9.398 22.5247 7.66 24.6587 7.66C26.7707 7.66 28.3987 9.398 28.3987 11.576C28.3987 13.71 26.7707 15.47 24.6587 15.47ZM44.2274 5.13H41.2574V12.192C41.2574 14.458 40.0474 15.69 38.3974 15.69C36.5274 15.69 35.6474 14.458 35.6474 12.456V5.13H32.6334V12.764C32.6334 16.262 34.5034 18.264 37.5834 18.264C39.2334 18.264 40.4654 17.604 41.2794 16.526V18H44.2274V5.13ZM46.0611 18H49.0311V10.938C49.0311 8.672 50.3511 7.44 52.0451 7.44C53.9811 7.44 54.9491 8.672 54.9491 10.674V18H57.9631V10.366C57.9631 6.868 56.0931 4.866 52.8591 4.866C51.1871 4.866 49.8671 5.592 49.0091 6.714V5.13H46.0611V18ZM58.6616 7.792H60.8616V12.632C60.8616 16.724 62.0716 18 66.0536 18H66.4716V15.206C64.1836 15.206 63.8536 14.854 63.8536 12.61V7.792H66.4716V5.13H63.8536V1.126L60.8616 3.172V5.13H58.6616V7.792ZM73.399 18.264C75.093 18.264 76.633 17.538 77.579 16.328V18H80.549V5.13H77.579V6.67C76.633 5.548 75.137 4.866 73.443 4.866C70.187 4.866 67.063 7.308 67.063 11.576C67.063 15.8 70.297 18.264 73.399 18.264ZM73.883 15.536C71.683 15.536 69.989 13.776 69.989 11.532C69.989 9.31 71.683 7.572 73.883 7.572C76.105 7.572 77.733 9.332 77.733 11.532C77.733 13.754 76.105 15.536 73.883 15.536ZM82.2408 18H85.2328V5.13H82.2408V18ZM81.8668 1.984C81.8668 3.106 82.5268 3.832 83.7368 3.832C84.9028 3.832 85.6068 3.106 85.6068 1.984C85.6068 0.861999 84.9028 0.113999 83.7368 0.113999C82.5928 0.113999 81.8668 0.861999 81.8668 1.984ZM86.9459 18H89.9159V10.938C89.9159 8.672 91.2359 7.44 92.9299 7.44C94.8659 7.44 95.8339 8.672 95.8339 10.674V18H98.8479V10.366C98.8479 6.868 96.9779 4.866 93.7439 4.866C92.0719 4.866 90.7519 5.592 89.8939 6.714V5.13H86.9459V18Z" fill="#111111" fill-opacity="0.36"/>
</svg>
