<svg width="119" height="22" viewBox="0 0 119 22" fill="none" xmlns="http://www.w3.org/2000/svg">
<path d="M9.34 1.6H12.376V17H10.066L3.466 7.584V17H0.43V1.6H2.74L9.34 10.994V1.6ZM23.4607 6H26.2987V17H23.4607V15.702C22.6101 16.7727 21.4147 17.308 19.8747 17.308C18.4081 17.308 17.1467 16.7507 16.0907 15.636C15.0494 14.5067 14.5287 13.128 14.5287 11.5C14.5287 9.872 15.0494 8.50067 16.0907 7.386C17.1467 6.25667 18.4081 5.692 19.8747 5.692C21.4147 5.692 22.6101 6.22733 23.4607 7.298V6ZM18.2247 13.744C18.7967 14.316 19.5227 14.602 20.4027 14.602C21.2827 14.602 22.0087 14.316 22.5807 13.744C23.1674 13.1573 23.4607 12.4093 23.4607 11.5C23.4607 10.5907 23.1674 9.85 22.5807 9.278C22.0087 8.69133 21.2827 8.398 20.4027 8.398C19.5227 8.398 18.7967 8.69133 18.2247 9.278C17.6527 9.85 17.3667 10.5907 17.3667 11.5C17.3667 12.4093 17.6527 13.1573 18.2247 13.744ZM30.4399 4.68C29.9559 4.68 29.5379 4.51133 29.1859 4.174C28.8486 3.822 28.6799 3.41133 28.6799 2.942C28.6799 2.47267 28.8486 2.062 29.1859 1.71C29.5379 1.358 29.9559 1.182 30.4399 1.182C30.9092 1.182 31.3126 1.358 31.6499 1.71C32.0019 2.062 32.1779 2.47267 32.1779 2.942C32.1779 3.41133 32.0019 3.822 31.6499 4.174C31.3126 4.51133 30.9092 4.68 30.4399 4.68ZM29.0099 17.22V6H31.8479V17.22C31.8479 18.8333 31.4519 20.0067 30.6599 20.74C29.8826 21.488 28.6799 21.8107 27.0519 21.708V18.98C27.7266 19.024 28.2179 18.9067 28.5259 18.628C28.8486 18.3493 29.0099 17.88 29.0099 17.22ZM43.8087 15.636C42.6793 16.7507 41.3007 17.308 39.6727 17.308C38.0447 17.308 36.666 16.7507 35.5367 15.636C34.422 14.5067 33.8647 13.128 33.8647 11.5C33.8647 9.872 34.422 8.50067 35.5367 7.386C36.666 6.25667 38.0447 5.692 39.6727 5.692C41.3007 5.692 42.6793 6.25667 43.8087 7.386C44.938 8.50067 45.5027 9.872 45.5027 11.5C45.5027 13.128 44.938 14.5067 43.8087 15.636ZM37.5387 13.678C38.1107 14.25 38.822 14.536 39.6727 14.536C40.5233 14.536 41.2347 14.25 41.8067 13.678C42.3787 13.106 42.6647 12.38 42.6647 11.5C42.6647 10.62 42.3787 9.894 41.8067 9.322C41.2347 8.75 40.5233 8.464 39.6727 8.464C38.822 8.464 38.1107 8.75 37.5387 9.322C36.9813 9.894 36.7027 10.62 36.7027 11.5C36.7027 12.38 36.9813 13.106 37.5387 13.678ZM53.5548 8.728H51.0688V13.304C51.0688 13.6853 51.1642 13.964 51.3548 14.14C51.5455 14.316 51.8242 14.4187 52.1908 14.448C52.5575 14.4627 53.0122 14.4553 53.5548 14.426V17C51.6042 17.22 50.2255 17.0367 49.4188 16.45C48.6268 15.8633 48.2308 14.8147 48.2308 13.304V8.728H46.3168V6H48.2308V3.778L51.0688 2.92V6H53.5548V8.728Z" fill="#111111" fill-opacity="0.54"/>
<path d="M71.5457 1.6V4.504H67.3877V17H64.3517V4.504H60.2157V1.6H71.5457ZM79.4705 6H82.3085V17H79.4705V15.702C78.6198 16.7727 77.4245 17.308 75.8845 17.308C74.4178 17.308 73.1565 16.7507 72.1005 15.636C71.0592 14.5067 70.5385 13.128 70.5385 11.5C70.5385 9.872 71.0592 8.50067 72.1005 7.386C73.1565 6.25667 74.4178 5.692 75.8845 5.692C77.4245 5.692 78.6198 6.22733 79.4705 7.298V6ZM74.2345 13.744C74.8065 14.316 75.5325 14.602 76.4125 14.602C77.2925 14.602 78.0185 14.316 78.5905 13.744C79.1772 13.1573 79.4705 12.4093 79.4705 11.5C79.4705 10.5907 79.1772 9.85 78.5905 9.278C78.0185 8.69133 77.2925 8.398 76.4125 8.398C75.5325 8.398 74.8065 8.69133 74.2345 9.278C73.6625 9.85 73.3765 10.5907 73.3765 11.5C73.3765 12.4093 73.6625 13.1573 74.2345 13.744ZM88.622 1.578L86.972 7.694H84.662L85.542 1.578H88.622ZM91.005 17V0.94H93.843V17H91.005ZM97.8486 4.68C97.3792 4.68 96.9686 4.51133 96.6166 4.174C96.2792 3.822 96.1106 3.41133 96.1106 2.942C96.1106 2.47267 96.2792 2.062 96.6166 1.71C96.9686 1.358 97.3792 1.182 97.8486 1.182C98.3326 1.182 98.7432 1.358 99.0806 1.71C99.4326 2.062 99.6086 2.47267 99.6086 2.942C99.6086 3.41133 99.4326 3.822 99.0806 4.174C98.7432 4.51133 98.3326 4.68 97.8486 4.68ZM96.4406 17V6H99.2786V17H96.4406ZM114.042 5.692C115.303 5.692 116.308 6.10267 117.056 6.924C117.819 7.74533 118.2 8.84533 118.2 10.224V17H115.362V10.422C115.362 9.762 115.201 9.24867 114.878 8.882C114.555 8.51533 114.101 8.332 113.514 8.332C112.869 8.332 112.363 8.54467 111.996 8.97C111.644 9.39533 111.468 10.0113 111.468 10.818V17H108.63V10.422C108.63 9.762 108.469 9.24867 108.146 8.882C107.823 8.51533 107.369 8.332 106.782 8.332C106.151 8.332 105.645 8.54467 105.264 8.97C104.897 9.39533 104.714 10.0113 104.714 10.818V17H101.876V6H104.714V7.166C105.374 6.18333 106.393 5.692 107.772 5.692C109.121 5.692 110.119 6.22 110.764 7.276C111.497 6.22 112.59 5.692 114.042 5.692Z" fill="#111111" fill-opacity="0.36"/>
</svg>
