<svg width="41" height="16" viewBox="0 0 41 16" fill="none" xmlns="http://www.w3.org/2000/svg">
<path d="M6.172 0.599999C7.65333 0.599999 8.9 1.09867 9.912 2.096C10.924 3.09333 11.43 4.318 11.43 5.77C11.43 7.222 10.924 8.44667 9.912 9.444C8.9 10.4413 7.65333 10.94 6.172 10.94H3.466V16H0.43V0.599999H6.172ZM6.172 8.102C6.81733 8.102 7.35267 7.882 7.778 7.442C8.20333 6.98733 8.416 6.43 8.416 5.77C8.416 5.09533 8.20333 4.538 7.778 4.098C7.35267 3.658 6.81733 3.438 6.172 3.438H3.466V8.102H6.172ZM19.5226 0.599999C21.6346 0.599999 23.3946 1.34067 24.8026 2.822C26.2252 4.30333 26.9366 6.12933 26.9366 8.3C26.9366 10.4707 26.2252 12.2967 24.8026 13.778C23.3946 15.2593 21.6346 16 19.5226 16H13.4066V0.599999H19.5226ZM19.5226 13.096C20.8572 13.096 21.9426 12.656 22.7786 11.776C23.6146 10.8813 24.0326 9.72267 24.0326 8.3C24.0326 6.87733 23.6146 5.726 22.7786 4.846C21.9426 3.95133 20.8572 3.504 19.5226 3.504H16.4426V13.096H19.5226ZM34.8322 0.599999C36.3135 0.599999 37.5602 1.09867 38.5722 2.096C39.5842 3.09333 40.0902 4.318 40.0902 5.77C40.0902 7.222 39.5842 8.44667 38.5722 9.444C37.5602 10.4413 36.3135 10.94 34.8322 10.94H32.1262V16H29.0902V0.599999H34.8322ZM34.8322 8.102C35.4775 8.102 36.0128 7.882 36.4382 7.442C36.8635 6.98733 37.0762 6.43 37.0762 5.77C37.0762 5.09533 36.8635 4.538 36.4382 4.098C36.0128 3.658 35.4775 3.438 34.8322 3.438H32.1262V8.102H34.8322Z" fill="#111111" fill-opacity="0.54"/>
</svg>
