<svg width="34" height="34" viewBox="0 0 34 34" fill="none" xmlns="http://www.w3.org/2000/svg">
<path d="M30.3515 17.0041C30.3593 16.2879 29.969 15.6299 29.3385 15.2828L14.6484 7.17877C13.9897 6.80619 13.2155 6.84939 12.5985 7.26944C11.9695 7.69727 11.6493 8.7201 11.8278 9.4596L13.2155 15.1992C13.3571 15.7886 13.8848 16.2044 14.4905 16.2036L22.6519 16.2036C23.0705 16.1959 23.4105 16.5359 23.4027 16.9545C23.4034 17.3646 23.0698 17.6982 22.6519 17.7053L14.4834 17.6982C13.877 17.6982 13.35 18.1119 13.207 18.7012L11.8073 24.4557C11.638 25.135 11.8356 25.8157 12.3173 26.2974C12.374 26.3541 12.4377 26.4178 12.5022 26.4667C13.1248 26.9491 13.9401 27.0121 14.6343 26.6438L29.3244 18.7111C29.9548 18.3782 30.3444 17.7195 30.3515 17.0041Z" fill="#006AFF" fill-opacity="0.54"/>
<path opacity="0.4" fill-rule="evenodd" clip-rule="evenodd" d="M7.22728 14.038C7.09128 13.902 7.00699 13.7143 7.0077 13.5067C7.0077 13.0917 7.34345 12.7559 7.75853 12.7559L9.69299 12.7552C10.1074 12.7559 10.4438 13.0924 10.4445 13.5067C10.4438 13.9211 10.1074 14.2576 9.69299 14.2583L7.75853 14.2576C7.55099 14.2583 7.36328 14.174 7.22728 14.038ZM9.04685 17.5468C8.91085 17.4108 8.82656 17.2231 8.82727 17.0155C8.82727 16.6005 9.16302 16.2647 9.5781 16.2647L11.5126 16.264C11.9269 16.2647 12.2634 16.6012 12.2641 17.0155C12.2634 17.4299 11.9269 17.7664 11.5126 17.7671L9.5781 17.7664C9.37056 17.7671 9.18285 17.6828 9.04685 17.5468ZM6.69922 20.2538C6.69851 20.4614 6.7828 20.6491 6.9188 20.7851C7.0548 20.9211 7.24251 21.0054 7.45005 21.0047L9.38451 21.0054C9.79889 21.0047 10.1353 20.6682 10.1361 20.2538C10.1353 19.8394 9.79889 19.503 9.38451 19.5023L7.45005 19.503C7.03497 19.503 6.69922 19.8387 6.69922 20.2538Z" fill="#006AFF" fill-opacity="0.54"/>
</svg>
