<svg width="24" height="24" viewBox="0 0 24 24" fill="none" xmlns="http://www.w3.org/2000/svg">
<g id="Iconly/Bulk/Ticket Star">
<g id="Ticket Star">
<path id="Fill 1" opacity="0.4" d="M21.25 13.4764C20.429 13.4764 19.761 12.8145 19.761 12.001C19.761 11.1865 20.429 10.5246 21.25 10.5246C21.449 10.5246 21.64 10.4463 21.78 10.3076C21.921 10.1679 22 9.97864 22 9.78146L21.999 7.10415C21.999 4.84102 20.14 3 17.856 3H6.144C3.86 3 2.001 4.84102 2.001 7.10415L2 9.86766C2 10.0648 2.079 10.2541 2.22 10.3938C2.36 10.5325 2.551 10.6108 2.75 10.6108C3.599 10.6108 4.239 11.2083 4.239 12.001C4.239 12.8145 3.571 13.4764 2.75 13.4764C2.336 13.4764 2 13.8093 2 14.2195V16.8949C2 19.158 3.858 21 6.143 21H17.857C20.142 21 22 19.158 22 16.8949V14.2195C22 13.8093 21.664 13.4764 21.25 13.4764Z" fill="#006AFF"/>
<path id="Fill 4" d="M15.4298 11.5886L14.2508 12.7366L14.5298 14.3596C14.5778 14.6406 14.4648 14.9176 14.2338 15.0836C14.0048 15.2516 13.7058 15.2726 13.4538 15.1386L11.9988 14.3736L10.5408 15.1396C10.4328 15.1966 10.3148 15.2266 10.1978 15.2266C10.0448 15.2266 9.89385 15.1786 9.76385 15.0846C9.53385 14.9176 9.42085 14.6406 9.46885 14.3596L9.74685 12.7366L8.56785 11.5886C8.36385 11.3906 8.29285 11.0996 8.38085 10.8286C8.46985 10.5586 8.69985 10.3666 8.98085 10.3266L10.6068 10.0896L11.3358 8.61256C11.4628 8.35856 11.7168 8.20056 11.9988 8.20056H12.0008C12.2838 8.20156 12.5378 8.35956 12.6628 8.61356L13.3918 10.0896L15.0208 10.3276C15.2988 10.3666 15.5288 10.5586 15.6168 10.8286C15.7058 11.0996 15.6348 11.3906 15.4298 11.5886Z" fill="#006AFF"/>
</g>
</g>
</svg>
